<?xml version="1.0" encoding="UTF-8" standalone="no"?>
<svg
   version="1.1"
   x="0px"
   y="0px"
   viewBox="0 0 55.487518 55.666466"
   enable-background="new 0 0 100 100"
   xml:space="preserve"
   id="svg3"
   width="55.487518"
   height="55.666466"
   xmlns="http://www.w3.org/2000/svg"
   xmlns:svg="http://www.w3.org/2000/svg"><defs
     id="defs3" /><g
     id="g1"
     transform="translate(-21.793,-22.166535)"><path
       d="m 27.728,70.766 c -0.249,0 -0.501,-0.062 -0.733,-0.192 -0.723,-0.406 -0.979,-1.32 -0.573,-2.042 19.653,-35.015 47.649,-45.827 48.832,-46.27 0.773,-0.29 1.639,0.103 1.93,0.877 0.292,0.775 -0.101,1.64 -0.876,1.932 C 76.027,25.175 48.125,35.992 29.036,70 c -0.274,0.49 -0.784,0.766 -1.308,0.766 z"
       id="path1"
       style="fill:#f2f2f2" /></g><g
     id="g2"
     transform="translate(-21.793,-22.166535)"><path
       d="m 23.293,77.833 c -0.261,0 -0.522,-0.068 -0.755,-0.204 -0.462,-0.269 -0.745,-0.762 -0.745,-1.296 V 59.25 c 0,-0.829 0.672,-1.5 1.5,-1.5 0.828,0 1.5,0.671 1.5,1.5 v 14.51 l 10.679,-6.048 c 0.719,-0.408 1.637,-0.155 2.044,0.566 0.409,0.721 0.155,1.636 -0.565,2.044 l -12.918,7.317 c -0.23,0.13 -0.485,0.194 -0.74,0.194 z"
       id="path2"
       style="fill:#f2f2f2" /></g></svg>
