<?xml version="1.0" encoding="UTF-8" standalone="no"?>
<svg
   version="1.1"
   viewBox="-5 -10 81.711647 76.3909"
   id="svg2"
   width="81.711647"
   height="76.3909"
   xmlns="http://www.w3.org/2000/svg"
   xmlns:svg="http://www.w3.org/2000/svg">
  <defs
     id="defs2" />
  <path
     d="m 46.45281,-9.99931 c -1.4922,0 -2.7031,1.2109 -2.707,2.707 0.0039,0.21094 0.03125,0.41797 0.08203,0.62109 l -29.07,9.9062 c -0.46875,-0.875 -1.3828,-1.4219 -2.375,-1.4258 -0.71875,0 -1.4062,0.28516 -1.9141,0.79297 -0.50781,0.50781 -0.79297,1.1953 -0.79297,1.9141 0,0.91406 0.46484,1.7656 1.2305,2.2617 l -12.039,20.203 c -0.36328,-0.17578 -0.76172,-0.26562 -1.1641,-0.26562 -0.71484,0 -1.4023,0.28516 -1.9102,0.79297 C -4.71493,28.01611 -5,28.7075 -5,29.4224 c 0,1.4961 1.2109,2.707 2.7031,2.707 0.25,0 0.49609,-0.03516 0.73438,-0.10547 l 11.27,29.238 c -0.92187,0.45703 -1.5039,1.3945 -1.5078,2.4219 0,0.71875 0.28516,1.4062 0.79297,1.9141 0.50781,0.50781 1.1953,0.79297 1.9141,0.79297 1.4023,0 2.5742,-1.0742 2.6953,-2.4727 l 57.719,-0.34766 -0.0039,0.0039 c 0.13672,1.3828 1.3008,2.4375 2.6914,2.4414 1.4922,0 2.7031,-1.2109 2.7031,-2.707 0,-0.71484 -0.28516,-1.4062 -0.79297,-1.9141 -0.50781,-0.50781 -1.1953,-0.79297 -1.9102,-0.79297 -0.02734,0.0039 -0.05469,0.0039 -0.08203,0.0078 l -3.7109,-30.086 c 1.2422,-0.26953 2.1289,-1.3672 2.1289,-2.6406 0,-1.4492 -1.1406,-2.6406 -2.5859,-2.7031 l -1.3984,-29.797 c 1.332,-0.1875 2.3242,-1.3281 2.3281,-2.6758 -0.0039,-0.71875 -0.28906,-1.4062 -0.79688,-1.9141 C 69.38356,-9.71484 68.69607,-10 67.97727,-10 c -0.125,0 -0.25391,0.01172 -0.38281,0.02734 -1.2344,0.18359 -2.1875,1.1836 -2.3008,2.4297 h -16.152 c -0.12891,-1.3906 -1.293,-2.4531 -2.6875,-2.457 z m 2.6875,2.9492 16.148,0.0078 h 0.0039 c 0.04687,0.53906 0.25781,1.0508 0.60156,1.4688 l -18.203,18.113 c -0.66406,-0.59766 -1.4961,-0.98047 -2.3828,-1.0977 l 1.1992,-16.035 c 1.375,-0.02734 2.5078,-1.0859 2.6328,-2.457 z m -5.1562,0.85938 v 0.0039 c 0.37109,0.82422 1.1289,1.4102 2.0234,1.5586 l -1.1953,16.031 h -0.08203 c -1.7891,0.0039 -3.3984,1.082 -4.082,2.7383 l -25.648,-8.9727 c 0.05859,-0.21094 0.08594,-0.43359 0.08594,-0.65234 0,-0.28125 -0.04297,-0.55469 -0.12891,-0.82031 z m 22.262,0.97266 c 0.45703,0.37891 1.0195,0.59766 1.6133,0.62109 l 1.4062,29.805 h -0.0039 c -0.80469,0.11328 -1.5156,0.58594 -1.9336,1.2812 l -18.508,-8.957 c 0.22266,-0.53906 0.33984,-1.1172 0.33984,-1.6992 0,-1.0859 -0.39844,-2.1289 -1.1211,-2.9414 z m -51.406,10.859 25.637,8.9688 c -0.11328,0.39844 -0.17188,0.80859 -0.17188,1.2227 0,0.86719 0.25781,1.7188 0.74219,2.4414 l -22.727,17.023 c -0.5,-0.55469 -1.2109,-0.875 -1.957,-0.89062 l -3.4023,-27.258 c 0.82812,-0.17969 1.5234,-0.73828 1.8789,-1.5078 z m -3.4961,1.3672 h 0.0039 c 0.32812,0.13672 0.67969,0.21094 1.0352,0.21094 0.02734,0 0.05078,-0.0039 0.07813,-0.0039 l 3.3945,27.23 c -0.82422,0.14453 -1.5391,0.66406 -1.9297,1.4102 l -13.633,-5.6406 c 0.07813,-0.25781 0.11719,-0.52344 0.11719,-0.79297 0,-0.86328 -0.41406,-1.6719 -1.1172,-2.1797 z m 37.254,10.969 18.508,8.9609 h 0.0078 c -0.11719,0.30469 -0.17578,0.625 -0.17969,0.94531 0,0.71875 0.28516,1.4062 0.79297,1.9141 0.50781,0.50781 1.1953,0.79297 1.9102,0.79297 0.02734,0 0.05469,-0.0039 0.08203,-0.0039 l 3.707,30.086 c -0.21484,0.04688 -0.42187,0.12109 -0.62109,0.21484 l -25.543,-41.422 c 0.55469,-0.38672 1.0117,-0.89453 1.3398,-1.4844 z m -7.2539,0.69922 0.0039,0.0039 c 0.58984,0.69531 1.3789,1.1953 2.2578,1.4258 l -6.125,30.227 v 0.0039 c -0.24219,-0.04297 -0.49219,-0.06641 -0.73828,-0.06641 -1.2461,0.0039 -2.4297,0.53125 -3.2656,1.4492 l -14.961,-13.031 c 0.32812,-0.46094 0.50781,-1.0117 0.50781,-1.5781 0,-0.49609 -0.14062,-0.98828 -0.40234,-1.4102 z m 5.4922,1.043 25.539,41.434 h 0.0078 c -0.02344,0.01563 -0.04297,0.03125 -0.0625,0.04687 l -17.059,-17.766 c 0.42969,-0.49219 0.66406,-1.1211 0.66016,-1.7734 0.0039,-0.71484 -0.28125,-1.4062 -0.78906,-1.9141 -0.50781,-0.50781 -1.1953,-0.79297 -1.9141,-0.79297 -0.20312,0.0039 -0.40625,0.02734 -0.60547,0.07422 l -6.2656,-19.078 c 0.17187,-0.06641 0.33594,-0.14062 0.49219,-0.22656 z m -0.96875,0.38672 6.2695,19.07 0.0039,0.0039 c -0.98828,0.42969 -1.6289,1.4023 -1.6289,2.4805 0.0039,0.55078 0.17188,1.0859 0.48438,1.5352 l -10.91,8.6016 c -0.5625,-0.64453 -1.2969,-1.1172 -2.1172,-1.3516 l 6.1328,-30.23 c 0.20703,0.02734 0.41797,0.04297 0.63281,0.04297 0.38281,0 0.76562,-0.05078 1.1406,-0.14844 z m -45.773,10.574 13.637,5.6289 0.0039,0.0039 c -0.08203,0.25781 -0.12109,0.52734 -0.125,0.79687 0.0039,1.1914 0.78516,2.2461 1.9258,2.5898 l -4.3359,21.301 h -0.0039 c -0.09375,-0.01172 -0.19141,-0.01953 -0.28906,-0.02344 -0.25,0 -0.49609,0.03516 -0.73438,0.10547 l -11.266,-29.238 c 0.51172,-0.25 0.92969,-0.66016 1.1914,-1.1602 z m 18.082,8.3867 14.98,13.039 0.0078,0.0039 c -0.55078,0.75391 -0.84766,1.6602 -0.85156,2.5898 0.0039,0.44922 0.07031,0.89062 0.20703,1.3164 l -19.148,6.5586 c -0.32031,-0.71484 -0.93359,-1.2539 -1.6836,-1.4805 l 4.3438,-21.301 h -0.0039 c 0.09766,0.01172 0.19531,0.01953 0.28906,0.02344 0.69531,0 1.3633,-0.26953 1.8672,-0.74609 z m 33.141,4.5117 0.0039,0.0039 c 0.50781,0.5 1.1875,0.78125 1.8984,0.78516 0.61328,0 1.207,-0.21094 1.6875,-0.58984 l 17.055,17.762 c -0.27344,0.31641 -0.46875,0.6875 -0.57031,1.0938 l -17.234,-3.9531 -13.094,-3.0117 c 0.07031,-0.31641 0.10547,-0.64062 0.10547,-0.96875 0,-0.89453 -0.26953,-1.7656 -0.77734,-2.5039 z m -10.402,12.574 13.121,3.0117 17.062,3.9141 -57.516,0.33594 0.0078,0.0039 c -0.01172,-0.125 -0.03125,-0.25 -0.0625,-0.37109 l 19.164,-6.5625 c 0.70703,1.6055 2.2969,2.6406 4.0508,2.6445 1.8828,0 3.5625,-1.1953 4.1797,-2.9766 z"
     id="path1"
     style="display:inline;fill:#ececec;fill-opacity:1;stroke:none" />
</svg>
