<svg xmlns:inkscape="http://www.inkscape.org/namespaces/inkscape" xmlns:sodipodi="http://sodipodi.sourceforge.net/DTD/sodipodi-0.dtd" xmlns="http://www.w3.org/2000/svg" xmlns:svg="http://www.w3.org/2000/svg" version="1.1" viewBox="0 0 604.66541 679.8017874999999" x="0px" y="0px"><g transform="translate(-217.22691,-362.33842)"><path style="" d="m 463.5,904.92055 c -1.65,-0.73266 -3.93052,-2.42418 -5.06783,-3.75894 -1.99737,-2.34417 -2.90372,-2.48711 -26.6042,-4.19577 -13.49501,-0.97291 -27.97699,-2.09757 -32.18218,-2.49925 -5.12362,-0.48941 -7.64987,-0.38483 -7.65817,0.31701 -0.007,0.57604 -1.69431,2.17234 -3.75,3.54734 -2.95062,1.9736 -5.00099,2.5 -9.73762,2.5 -6.85677,0 -11.40812,-2.48785 -14.11004,-7.7128 -2.02805,-3.92181 -1.96594,-11.7727 0.12512,-15.81637 1.8957,-3.66587 2.96459,-1.75226 -13.36727,-23.93109 l -9.91175,-13.46026 -6.86803,-0.0397 c -5.60922,-0.0325 -7.48507,-0.47982 -10.23456,-2.44081 -3.6678,-2.61595 -7.07672,-9.00509 -7.11151,-13.32869 -0.0603,-7.49472 7.61408,-16.76894 13.87808,-16.77116 2.52488,-9e-4 2.81059,-0.69372 9.89407,-23.99183 l 7.2941,-23.9909 -3.60302,-3.1635 c -4.99819,-4.38847 -7.47884,-9.68992 -7.51619,-16.06301 l -0.031,-5.28988 -19.71899,-13.16978 c -10.84545,-7.24338 -26.94132,-18.08482 -35.76861,-24.0921 l -16.0496,-10.92232 -3.4348,1.8421 c -9.04489,4.85083 -18.96599,-1.34254 -18.96599,-11.83976 0,-2.80171 0.66477,-5.82222 1.56391,-7.10592 1.473,-2.103 1.27499,-2.85707 -3.40644,-12.9725 -11.50027,-24.84933 -13.27779,-28.23972 -14.80557,-28.23972 -2.67256,0 -8.1445,-6.37756 -8.89238,-10.36408 -1.5295,-8.15293 4.67566,-15.63592 12.96586,-15.63592 2.27128,0 5.12866,0.69976 6.34973,1.55503 2.12481,1.48828 2.82919,1.14768 16.40783,-7.93402 l 14.18771,-9.48905 -0.25416,-5.4869 c -0.23529,-5.07934 0.0196,-5.7899 3.43103,-9.56598 2.02686,-2.2435 4.23588,-4.07908 4.90893,-4.07908 0.91809,0 1.39666,-6.8059 1.91611,-27.25 0.63386,-24.94672 0.54981,-27.33452 -0.99442,-28.25 -13.9712,-8.28266 -16.36933,-24.27646 -5.12089,-34.15272 4.86005,-4.26718 9.78257,-5.73255 16.7949,-4.99962 4.52677,0.47314 5.87311,0.28949 6.31475,-0.86141 0.60165,-1.56786 24.74574,-39.93995 38.00545,-60.40189 7.95827,-12.28092 8.04601,-12.48708 8.08661,-19 0.0466,-7.47794 1.90466,-10.97882 7.19217,-13.55128 8.07402,-3.92815 17.93489,0.75261 19.83782,9.41662 0.43627,1.98632 1.59904,3.24503 3.81914,4.13427 3.7664,1.50858 48.69825,21.35477 53.49297,23.62759 3.21571,1.52433 3.37728,1.49176 6.24898,-1.2595 2.37393,-2.27437 4.06771,-2.90264 8.69894,-3.22668 4.8154,-0.33692 6.32043,-0.0153 9.25102,1.97667 l 3.5,2.37906 12,-8.08706 c 6.6,-4.44788 18.1875,-12.08669 25.75,-16.97514 l 13.75,-8.88809 0.004,-4.56541 c 0.007,-8.83354 6.41282,-15.05793 15.49626,-15.05793 6.39692,0 10.75464,2.61117 13.57111,8.1319 1.57429,3.08588 2.0103,5.31049 1.62463,8.28923 l -0.52714,4.07139 8.03062,6 c 4.41684,3.3 9.99585,7.71866 12.39781,9.81924 4.17174,3.64831 4.46868,3.7479 6.63508,2.2252 6.75022,-4.74451 15.37049,-3.87517 21.40426,2.15859 l 3.6221,3.62211 25.62077,-1.19165 c 50.28702,-2.3389 47.89673,-2.10473 48.56254,-4.75756 0.91561,-3.64809 6.29217,-9.13302 10.2248,-10.43091 14.67555,-4.84337 27.24923,12.29911 17.95698,24.48188 -1.44296,1.89181 -2.62356,3.92448 -2.62356,4.51705 0,1.22926 26.62781,80.64482 27.52877,82.1026 0.3241,0.5244 1.91141,0.95345 3.52737,0.95345 1.98967,0 4.27959,1.21051 7.09385,3.75 7.02271,6.33704 8.52091,12.96987 4.78819,21.19823 l -2.0179,4.44824 4.94056,4.94056 4.94057,4.94057 3.10612,-2.21176 c 7.76199,-5.52702 20.04061,-3.07718 25.73084,5.13383 2.44939,3.53448 2.86163,5.08923 2.86163,10.79267 0,5.73828 -0.38413,7.16697 -2.76693,10.29098 l -2.76693,3.62763 16.62284,27.29453 c 9.14256,15.01198 17.22307,28.2498 17.95667,29.41737 0.93527,1.48853 2.04821,1.98628 3.72461,1.66582 6.61401,-1.26435 15.6283,4.07724 18.85008,11.16996 2.25787,4.9707 2.34565,8.49034 0.33193,13.30984 -3.4502,8.2575 -10.81843,12.81645 -19.13445,11.83906 -5.18224,-0.60907 -5.38821,-0.53466 -8.67616,3.1343 -1.85235,2.06699 -8.61182,9.60206 -15.02105,16.7446 -8.05341,8.97484 -11.44366,13.45398 -10.97503,14.5 2.62991,5.87013 0.0426,14.04104 -5.06047,15.98121 -1.32769,0.50479 -2.63712,1.73107 -2.90985,2.72508 -0.27273,0.994 -2.18679,12.86923 -4.25346,26.38939 l -3.75758,24.58211 4.09581,4.09581 c 5.30035,5.30035 6.43569,10.97583 3.38994,16.946 -1.11912,2.19365 -3.24795,4.78337 -4.73073,5.75493 -6.00506,3.93467 -15.71827,2.75874 -19.5036,-2.36119 l -2.01187,-2.7212 -20.70188,3.30504 c -11.38604,1.81777 -23.69555,3.79085 -27.35447,4.38463 -6.37798,1.03504 -6.67735,1.2107 -7.25291,4.25568 -0.85264,4.51095 -3.82521,8.9868 -8.17565,12.31025 -3.13975,2.39856 -4.97575,2.94735 -11.26041,3.36583 l -7.50899,0.5 -14.33185,19 c -20.34435,26.9709 -19.82881,26.17911 -18.26906,28.0585 0.71952,0.86697 1.34045,3.77036 1.37984,6.45197 0.0624,4.2482 -0.37059,5.33209 -3.36447,8.4222 -5.78751,5.97352 -12.81703,6.01422 -18.72286,0.10839 -2.71482,-2.71456 -3.34132,-4.11919 -3.34132,-7.49072 0,-2.28231 0.69419,-5.49208 1.54265,-7.13282 l 1.54266,-2.98316 -12.41002,-16.1427 -12.41001,-16.1427 -8.01,-0.0745 c -7.60151,-0.0707 -8.10549,0.0626 -9.88264,2.61443 -1.02995,1.4789 -5.85642,7.69233 -10.72549,13.80761 -8.54916,10.73728 -8.79286,11.18499 -7.10418,13.05096 0.96177,1.06274 1.96254,4.15804 2.22393,6.87844 1.19229,12.40838 -12.75108,20.64575 -23.08103,13.63566 l -3.59321,-2.43843 -16.50309,7.68843 c -14.24386,6.6359 -16.509,8.00324 -16.54633,9.98808 -0.0719,3.82396 -2.75671,7.83649 -6.40032,9.5655 -4.0807,1.93641 -4.27537,1.94181 -8.14292,0.22445 z m -4.55006,-15.66195 3.28676,-5.07234 -2.27756,-8.17766 c -3.02809,-10.87246 -3.50106,-11.67766 -6.85947,-11.67766 -1.55647,0 -4.06326,-0.97012 -5.57064,-2.15582 -2.10848,-1.65854 -3.26999,-1.94688 -5.03527,-1.25 -1.63877,0.64692 -46.12346,20.33389 -47.10617,20.84711 -0.0618,0.0323 -0.34918,1.91657 -0.63856,4.18728 l -0.52614,4.12857 11.13855,0.73522 c 6.12621,0.40437 19.91356,1.30099 30.63856,1.99249 10.725,0.6915 19.53671,1.31529 19.58159,1.38621 0.0449,0.0709 1.56063,-2.15361 3.36835,-4.9434 z m 33.64386,-8.36223 15.89855,-7.43458 -0.34163,-3.31542 c -0.1879,-1.82349 -0.50926,-3.4885 -0.71412,-3.70004 -0.20486,-0.21153 -8.96986,-2.54108 -19.47776,-5.17677 l -19.10529,-4.79217 -3.76979,3.76979 -3.76979,3.76979 2.93085,9.90698 c 2.84279,9.60937 3.05588,9.97032 7.09301,12.01494 2.28919,1.15938 4.4311,2.17188 4.7598,2.25 0.32869,0.0781 7.75197,-3.20351 16.49617,-7.29252 z m -74.81107,-15.23209 c 11.9445,-5.23111 22.46416,-9.73798 23.37703,-10.01526 1.18969,-0.36136 1.77469,-1.96469 2.06556,-5.66111 0.36473,-4.63493 0.13154,-5.38366 -2.30349,-7.39628 -1.49011,-1.23162 -8.71961,-7.36821 -16.06556,-13.63686 -13.10034,-11.17916 -13.40801,-11.37098 -16.05661,-10.01069 -1.48519,0.76277 -3.76115,1.38686 -5.0577,1.38686 -2.13117,0 -2.61577,0.93556 -5.05033,9.75 C 391.25774,856.99567 388,869.29259 388,870.43841 c 0,2.30958 4.24837,5.94848 6.21578,5.32404 1.01733,-0.32288 11.62246,-4.86706 23.56695,-10.09817 z m -36.18579,3.27776 c 0.0533,-0.0611 3.08646,-11.17994 6.74032,-24.70851 l 6.64337,-24.59742 -3.92763,-4.12879 -3.92763,-4.1288 -18.56268,6.01155 c -18.03321,5.84007 -18.56311,6.08898 -18.57743,8.72621 -0.008,1.49306 -0.66546,3.83966 -1.46078,5.21466 -0.79532,1.375 -1.72999,3.04467 -2.07704,3.71037 -0.35006,0.67147 4.81707,8.79325 11.60552,18.24172 l 12.23652,17.03136 5.60526,-0.63062 c 3.08289,-0.34685 5.64888,-0.68062 5.7022,-0.74173 z m 130.55341,-10.95646 2.65035,-3.20097 -12.7934,-25.47683 -12.79339,-25.47684 -5.04523,-0.0832 -5.04522,-0.0832 -2.69536,6.08325 c -1.48245,3.34578 -5.11182,11.39867 -8.06527,17.89532 l -5.36992,11.81207 2.42569,3.18793 c 1.33413,1.75335 2.73549,4.42934 3.11413,5.94663 0.46419,1.86003 1.54827,2.97425 3.32786,3.42039 1.45168,0.36393 9.61441,2.55826 18.13941,4.8763 8.525,2.31803 16.4,4.23387 17.5,4.25741 1.1,0.0235 3.19266,-1.39764 4.65035,-3.15817 z m 116.05839,-21.49018 16.7019,-22.5022 -2.83968,-3.23423 c -1.56183,-1.77882 -3.01966,-3.77412 -3.23961,-4.43399 -0.30113,-0.90337 -3.72653,-0.66966 -13.86564,0.94604 -35.04905,5.58519 -44.58511,7.16077 -46.06065,7.61033 -0.97571,0.29727 -2.06476,2.58536 -2.80507,5.8934 l -1.21014,5.40747 7.17878,9.32436 c 3.94832,5.1284 9.59618,12.51186 12.55079,16.40769 l 5.37202,7.08334 h 5.75769 5.7577 z m -86.37766,2.66034 c 10.05476,-12.58362 10.11729,-12.6956 8.65459,-15.5 -0.81034,-1.55364 -1.47612,-4.91416 -1.47951,-7.46781 -0.005,-3.49222 -0.4399,-4.81171 -1.75616,-5.32364 -0.9625,-0.37435 -6.7,-2.40903 -12.75,-4.52153 -6.05,-2.11249 -16.67817,-5.87287 -23.61816,-8.35641 l -12.61816,-4.51552 -2.5812,3.94245 -2.5812,3.94246 3.29323,6.2376 c 1.81128,3.43068 7.68206,14.9001 13.04619,25.4876 l 9.75296,19.25 3.65317,0.0153 c 2.00924,0.008 4.32817,0.44215 5.15317,0.96384 1.78734,1.13022 0.85931,2.07995 13.83108,-14.15435 z m -86.91371,-0.71928 c 3.34243,-0.59915 3.59146,-1.00145 11.35487,-18.34301 l 7.93749,-17.73042 -2.85486,-4.27453 c -3.33698,-4.99637 0.23899,-5.09038 -32.10128,0.84386 -18.25041,3.34883 -21.24692,4.14988 -21.25,5.6807 -0.002,0.98016 -0.65161,3.33304 -1.44363,5.22861 l -1.44003,3.4465 15.69003,13.53332 c 13.54666,11.68457 16.03156,13.44414 18.19004,12.88045 1.375,-0.35909 4.03782,-0.92855 5.91737,-1.26548 z m -86.25692,-27.16411 c 16.53094,-5.1016 17.18174,-5.40235 17.74096,-8.19848 0.31929,-1.59643 1.30982,-4.43948 2.20119,-6.31789 l 1.62066,-3.4153 -6.84661,-10.75487 c -14.61878,-22.96366 -14.77531,-23.1709 -16.69085,-22.09891 -0.96992,0.54279 -4.19552,0.9869 -7.168,0.9869 h -5.40452 l -1.48914,4.67857 c -1.38446,4.34965 -5.8643,19.50026 -10.48207,35.44985 l -1.96044,6.77128 2.84962,1.4736 c 1.5673,0.81048 3.651,2.83021 4.63046,4.4883 0.97945,1.65808 2.24375,2.83878 2.80956,2.62376 0.5658,-0.21501 8.75093,-2.77408 18.18918,-5.68681 z m 238.48344,-7.5903 29.6439,-4.73228 0.58621,-3.55942 c 0.32242,-1.95767 0.86017,-4.73177 1.19501,-6.16465 0.68983,-2.95198 1.0521,-2.62378 -44.03704,-39.89476 -17.96901,-14.8533 -25.38301,-20.40907 -26.91608,-20.16987 -4.39843,0.68626 -15.19588,0.64038 -17.13044,-0.0728 -1.68804,-0.62229 -6.20556,3.45068 -27.87321,25.13036 l -25.85867,25.87302 1.41599,4.24796 1.41599,4.24797 25.95722,9.21253 c 24.86577,8.82517 26.04133,9.14039 27.95723,7.49664 6.49293,-5.5706 14.35582,-5.20257 19.90735,0.9318 1.04644,1.15631 2.39538,2.12114 2.99764,2.14408 0.60225,0.0229 14.43476,-2.08784 30.7389,-4.69059 z m -166.39681,-10.3733 c 28.82668,-5.09589 27.25225,-4.70618 27.25666,-6.74686 0.002,-0.95202 0.90205,-3.20433 2,-5.00512 1.09794,-1.80079 1.99626,-3.73496 1.99626,-4.29814 0,-0.56319 -1.98863,-5.25108 -4.41917,-10.41755 l -4.41917,-9.39356 -3.79637,1.04823 c -3.76161,1.03863 -11.33144,0.71833 -14.52068,-0.61441 -1.26826,-0.52999 -5.19177,3.42316 -16.77752,16.90432 l -15.12214,17.59608 1.77752,2.44318 c 0.97764,1.34374 2.11372,2.45731 2.52461,2.4746 0.41089,0.0173 10.98589,-1.77857 23.5,-3.99077 z M 700.5,788.25752 c 10.45,-1.65821 21.36992,-3.28378 24.26649,-3.61236 5.55504,-0.63016 6.00572,-1.14327 6.5199,-7.42304 0.18652,-2.27801 -2.70287,-4.99135 -22.78639,-21.398 -28.99875,-23.6897 -45.96367,-37.84783 -50.6913,-42.30462 -3.54531,-3.34219 -3.82218,-3.42769 -7,-2.1616 -1.81979,0.72502 -3.44582,1.41517 -3.61341,1.53367 -0.76864,0.5435 11.1872,64.02499 12.18044,64.67406 0.61835,0.40408 2.06925,0.74158 3.22423,0.75 3.32108,0.0242 9.98003,5.47384 12.02868,9.84415 1.5801,3.37078 2.26047,3.92369 4.37136,3.5524 1.375,-0.24185 11.05,-1.79645 21.5,-3.45466 z M 423.06584,771.26181 c 13.87417,-16.35583 14.6952,-17.55422 13.31231,-19.43087 -0.81059,-1.1 -2.46375,-4.18995 -3.67369,-6.86657 l -2.19989,-4.86656 -5.89898,0.61656 c -3.24443,0.33912 -14.11566,0.61657 -24.15828,0.61657 H 382.188 l -1.58012,4.63742 c -0.86907,2.55058 -2.66661,6.06186 -3.99452,7.80284 l -2.41439,3.16543 10.08722,16.01867 10.08722,16.01866 6.95316,-0.14064 6.95317,-0.14063 z M 647,780.33094 c 1.375,-1.07554 3.11128,-1.96553 3.85841,-1.97776 0.89409,-0.0146 1.17944,-0.79131 0.83484,-2.27224 -0.28797,-1.2375 -2.90859,-15.82562 -5.82361,-32.41804 l -5.30003,-30.16804 -2.87856,-0.57571 c -2.79436,-0.55887 -8.37758,-5.33381 -10.28175,-8.79326 -0.87676,-1.5929 -2.2531,-1.61119 -20.9239,-0.27812 -10.99197,0.78482 -20.7729,1.43959 -21.7354,1.45506 -1.01601,0.0163 -1.75,0.79224 -1.75,1.84997 0,3.56501 -3.2256,11.20814 -5.97,14.14602 l -2.78749,2.98402 31.99753,26.77405 c 17.59864,14.72573 33.18157,27.77037 34.62874,28.98809 3.20679,2.69834 3.05615,2.69132 6.13122,0.28596 z m -129.20735,-30.29253 25.27794,-25.29253 -2.45489,-2.30625 c -1.35019,-1.26843 -2.99567,-3.61179 -3.65661,-5.20747 -0.66095,-1.59567 -1.62831,-2.90122 -2.14968,-2.90122 -0.8531,0 -17.17817,4.90575 -48.34112,14.5267 l -11.0317,3.40582 -0.0765,5.29574 c -0.0773,5.34991 -2.74061,12.18284 -5.70861,14.64606 -1.30027,1.07913 -0.87966,2.56034 3.2328,11.38465 l 4.72754,10.14412 4.94412,-0.22148 c 2.71926,-0.12182 5.61911,0.2306 6.44411,0.78314 0.825,0.55254 1.95331,1.01152 2.50735,1.01994 0.55405,0.008 12.38243,-11.36633 26.2853,-25.27722 z m 220.64848,19.76073 c 1.06762,-0.80751 2.74655,-1.4682 3.73095,-1.4682 1.03519,0 2.0093,-0.94865 2.3104,-2.25 C 745.51402,761.62253 752,720.14603 752,718.00793 c 0,-1.47389 -0.98732,-2.6258 -3.02291,-3.52684 -5.65378,-2.5026 -7.72598,-10.96791 -4.27149,-17.44981 0.93808,-1.76019 1.62988,-3.42534 1.53733,-3.70034 -0.0925,-0.275 -5.07575,-11.75 -11.07377,-25.5 -10.88524,-24.95355 -10.91185,-25.00104 -14.3213,-25.55747 -1.87868,-0.3066 -3.99957,-0.91826 -4.71309,-1.35923 -0.81937,-0.50641 -2.28044,0.1174 -3.96603,1.6933 -1.46781,1.37229 -4.24374,3.31509 -6.16874,4.31732 -4.44996,2.31684 -14.3519,2.45022 -18.42494,0.24819 l -2.92495,-1.58132 -14.6221,19.1196 c -8.04215,10.51579 -14.97006,19.69032 -15.39534,20.38785 -0.44828,0.73525 0.13183,2.73269 1.38038,4.75287 2.33444,3.77721 2.8941,10.91535 1.11624,14.2373 -0.85599,1.59945 -0.47717,2.46395 2.16667,4.94451 C 663.31299,712.8028 698,741.46989 698,741.02082 c 0,-0.18186 2.1375,1.59108 4.75,3.93987 8.35162,7.50859 31.71395,26.25721 32.75,26.28237 0.55,0.0134 1.87351,-0.63642 2.94113,-1.44392 z m -325.02497,-35.4682 h 17.1144 l 1.70352,-4.79638 c 0.93694,-2.63801 2.81509,-5.84063 4.17366,-7.11694 l 2.47013,-2.32057 -12.1538,-24.33171 -12.1538,-24.33171 -6.03514,0.1519 c -3.31932,0.0835 -6.5876,-0.0521 -7.26285,-0.30134 -0.76556,-0.28263 -6.24955,8.95765 -14.56816,24.54675 l -13.34045,25 3.30338,3.91272 c 1.81686,2.152 3.59653,5.47534 3.95482,7.38519 l 0.65143,3.47246 7.51423,-0.63519 c 4.13282,-0.34935 15.21571,-0.63518 24.62863,-0.63518 z m -72.80879,-7.75 c 1.01057,-1.5125 1.73733,-3.0875 1.61501,-3.5 -0.12231,-0.4125 0.11512,-0.6652 0.52762,-0.56155 1.38304,0.34752 8.25,-4.37067 8.25,-5.66846 0,-3.30885 -13.75647,-93.7218 -14.59069,-95.89572 -0.2906,-0.75729 -2.18908,-1.64861 -4.21884,-1.98069 -2.02976,-0.33208 -4.81547,-0.8476 -6.19047,-1.14559 -2.13069,-0.46176 -5.68553,2.23124 -24.06429,18.23011 -11.86036,10.32454 -24.66716,21.57361 -28.45956,24.99793 l -6.89526,6.22603 1.28407,3.55103 c 0.70624,1.95307 1.15097,5.39443 0.9883,7.64746 l -0.29577,4.09641 34.47125,23.31056 c 18.95919,12.82081 34.75701,23.34025 35.10625,23.37652 0.34924,0.0363 1.46182,-1.17154 2.47238,-2.68404 z M 500,717.99442 c 13.475,-4.1622 26.58418,-8.11827 29.13152,-8.79127 4.58212,-1.21059 4.6377,-1.27583 5.21102,-6.1166 0.31872,-2.69113 1.24079,-6.21857 2.04905,-7.83874 l 1.46954,-2.94578 -6.18056,-3.51533 c -3.39931,-1.93343 -11.77808,-6.60482 -18.61948,-10.38086 l -12.43891,-6.86552 -3.70494,2.97737 c -3.12283,2.50957 -4.44457,2.93188 -8.41251,2.68787 l -4.70759,-0.28949 -10.88802,18.95743 c -5.98842,10.42659 -10.89277,19.41761 -10.89857,19.98004 -0.006,0.56242 1.58853,1.88375 3.54296,2.93628 1.95442,1.05253 4.31532,3.20335 5.24643,4.77959 0.9995,1.69203 2.30879,2.68706 3.1965,2.42928 0.82696,-0.24014 12.52856,-3.84206 26.00356,-8.00427 z m -132.44721,-0.57807 c -0.31089,-0.50302 -0.19843,-1.06552 0.24991,-1.25 1.03059,-0.42405 4.55011,-6.69853 16.63518,-29.65663 l 9.64424,-18.32122 -3.16616,-3.60605 c -3.81582,-4.34598 -5.61351,-8.40869 -6.27728,-14.18643 -0.27316,-2.37768 -0.86611,-4.66743 -1.31767,-5.08834 -0.45155,-0.42091 -9.27097,-6.88787 -19.59869,-14.37101 C 348.04155,619.57487 342,615.86276 342,617.58983 c 0,2.917 13.74299,94.30111 14.58621,96.99111 0.36436,1.16235 1.61728,1.7736 3.73118,1.82029 1.75043,0.0386 4.08261,0.45702 5.18261,0.92971 2.65725,1.14186 2.70699,1.14393 2.05279,0.0854 z m 87.09584,-3.4595 c 0.63175,-0.61925 6.2026,-9.78891 12.37966,-20.37702 l 11.23101,-19.2511 -1.26369,-4.51349 c -0.89658,-3.20225 -1.87842,-4.65242 -3.37966,-4.99173 -7.54229,-1.70469 -42.0338,-8.49257 -43.15364,-8.49257 -0.75266,0 -2.11834,1.58023 -3.03485,3.51162 -0.91651,1.93139 -2.95059,4.59222 -4.52018,5.91295 l -2.85381,2.40132 11.47326,23.14183 C 437.83703,704.02666 443,714.84464 443,715.3386 c 0,1.23 10.22105,0.0176 11.64863,-1.38175 z M 599.5,697.86938 c 23.17297,-1.03722 27.5,-1.59372 27.5,-3.53682 0,-0.94739 1.05584,-3.27839 2.3463,-5.17999 l 2.3463,-3.45747 -8.37561,-13.43208 c -4.60659,-7.38764 -10.60156,-16.93427 -13.32216,-21.21472 l -4.94654,-7.78264 -4.07524,2.07903 c -3.10979,1.5865 -5.5438,2.00882 -10.27415,1.78264 l -6.1989,-0.29639 -8.66133,17.43039 -8.66133,17.43039 4.42481,2.80614 C 575.81672,687.17066 582,695.22718 582,698.04577 c 0,0.84159 0.81903,1.15623 2.25,0.86438 1.2375,-0.25239 8.1,-0.72074 15.25,-1.04077 z m 165.16659,-7.93682 c 1.00838,-1.31912 7.36444,-8.51986 14.12459,-16.00167 l 12.29118,-13.60328 -2.5386,-4.33179 c -1.39623,-2.38248 -2.63769,-5.52915 -2.75881,-6.9926 -0.16518,-1.99587 -0.97803,-2.90085 -3.25258,-3.62128 -16.20351,-5.13222 -42.93247,-13.051 -44.05217,-13.051 -0.77541,0 -1.93343,1.0125 -2.57337,2.25 -0.63995,1.2375 -2.32832,3.20791 -3.75194,4.3787 l -2.58839,2.1287 5.3293,12.3713 c 16.23729,37.69279 16.31831,37.85566 18.55308,37.29477 1.15397,-0.28962 3.21255,-0.0819 4.57463,0.46158 3.75326,1.49764 4.6495,1.32449 6.64308,-1.28343 z m -217.07297,-6.92584 c 1.70149,-0.86097 5.36928,-1.86728 8.15064,-2.23624 l 5.05702,-0.67084 8.64226,-17.93628 8.64226,-17.93629 -3.05708,-3.85986 C 571.01658,635.30146 569,630.31148 569,625.44926 v -3.94591 l -24.67598,-13.1047 -24.67597,-13.1047 -2.70093,2.58765 c -1.4855,1.42321 -4.65643,3.16504 -7.04649,3.87074 l -4.34558,1.2831 -4.97617,24.59898 -4.97618,24.59897 2.65821,2.46355 c 2.44758,2.26834 3.16313,3.9004 3.95016,9.00975 0.19864,1.28958 6.38257,5.23752 19.78893,12.63362 16.27541,8.97892 19.74805,10.54902 21,9.49484 0.825,-0.69467 2.89213,-1.96746 4.59362,-2.82843 z M 662.18117,664.7758 c 17.60476,-23.09121 17.14734,-22.16311 14.02891,-28.46431 l -2.46484,-4.98055 -29.12262,0.0153 c -16.01744,0.008 -29.62233,0.34592 -30.23309,0.75 -0.61075,0.40408 -1.86384,2.20499 -2.78464,4.00202 l -1.67418,3.26733 9.15735,14.73267 c 5.03653,8.10297 11.01462,17.73656 13.28464,21.40798 4.10322,6.63635 4.15648,6.67752 9.1273,7.05527 2.75,0.20899 5.45,0.33029 6,0.26956 0.55,-0.0607 7.15653,-8.1856 14.68117,-18.05528 z M 278.30443,650.08094 c 8.90918,-7.8375 21.96347,-19.1698 29.00954,-25.18289 11.69162,-9.97758 12.74957,-11.1572 12.10759,-13.5 -0.3869,-1.41191 -0.97772,-4.14211 -1.31295,-6.06711 -0.58219,-3.34316 -1.16961,-3.77324 -13.10905,-9.59769 -12.39599,-6.04716 -12.51916,-6.0825 -14.86528,-4.26505 -4.96065,3.84283 -13.59932,4.1294 -17.93415,0.59494 -0.97625,-0.796 -4.7682,1.28388 -15.23063,8.35396 l -13.93075,9.41384 -0.0194,4.38197 c -0.0223,5.04352 -2.72594,10.08785 -6.48519,12.09974 -1.3938,0.74594 -2.53007,1.61771 -2.52504,1.93727 0.005,0.31956 3.79241,8.3187 8.4164,17.77586 l 8.40724,17.19484 5.33361,0.37018 c 2.93349,0.2036 5.46994,0.45342 5.63657,0.55516 0.16662,0.10174 7.59229,-6.22752 16.50147,-14.06502 z m 201.08959,5.66931 c 1.95836,-2.25767 4.39918,-3.84221 6.60598,-4.28848 l 3.5,-0.70779 4.82172,-23.93762 c 3.30892,-16.4273 4.46732,-24.05574 3.69217,-24.31412 -0.62125,-0.20709 -3.01603,-1.802 -5.32172,-3.54426 -2.30569,-1.74226 -4.69933,-3.15859 -5.3192,-3.14739 -0.61987,0.0112 -14.44137,9.02035 -30.71446,20.02035 -21.89827,14.80242 -29.42709,20.38982 -28.97047,21.5 0.33931,0.825 1.26492,4.0028 2.0569,7.06179 l 1.43997,5.56179 14.15754,2.76629 c 7.78665,1.52146 17.53255,3.58438 21.65755,4.58426 4.125,0.99988 7.90231,1.86475 8.39402,1.92192 0.49172,0.0572 2.29172,-1.50736 4,-3.47674 z m -90.89065,-20.24504 c 1.39246,-2.10415 4.28055,-4.80861 6.41798,-6.00991 2.75717,-1.54962 3.75187,-2.69795 3.42378,-3.95259 -0.25435,-0.97262 -5.04855,-15.61274 -10.65379,-32.53359 L 377.5,562.24393 l -8.58145,-0.20649 -8.58145,-0.2065 -7.16855,13.16294 C 349.22585,582.2335 346,588.46854 346,588.84953 c 0,0.38098 1.10709,2.0084 2.46021,3.61649 3.44387,4.09281 4.22566,9.30565 2.22771,14.85401 -1.51631,4.21081 -1.51007,4.62495 0.0938,6.22508 2.33329,2.32777 33.53094,25.60309 34.45404,25.70477 0.4047,0.0446 1.8751,-1.64052 3.26756,-3.74467 z M 787,638.36574 c 0,-0.53087 1.38272,-2.54003 3.0727,-4.46482 l 3.0727,-3.49962 -11.42283,-18.78518 c -6.28256,-10.33185 -14.07777,-23.17253 -17.3227,-28.53485 -4.84825,-8.01184 -6.25636,-9.66304 -7.89987,-9.26365 -1.1,0.2673 -3.59501,0.49216 -5.54446,0.49967 l -3.54447,0.0136 -6.73527,20.58956 -6.73526,20.58956 2.64708,5.41044 c 1.45589,2.97574 3.15677,5.41166 3.77973,5.41314 0.62296,0.001 10.35765,2.89404 21.63265,6.42788 20.45057,6.40967 25,7.42951 25,5.60422 z M 433.71544,623.51296 c 5.38151,-3.74989 18.9772,-13.01548 30.21265,-20.5902 l 20.42809,-13.77222 -0.24762,-5.34563 c -0.13619,-2.94009 0.21244,-6.20524 0.77473,-7.25589 0.88288,-1.64967 -0.72459,-3.63878 -11.78353,-14.58111 l -12.80586,-12.67084 -2.89695,1.51077 c -1.59332,0.83093 -4.24695,1.51912 -5.89695,1.52932 l -3,0.0185 -14.8022,37.57227 c -15.04466,38.18773 -15.65381,40.40301 -11.10991,40.40301 0.73864,0 5.74604,-3.06809 11.12755,-6.81798 z m -6.97954,-31.43759 c 18.7288,-47.04084 16.92171,-41.59552 14.39191,-43.36746 -1.17658,-0.82411 -2.82322,-2.82106 -3.6592,-4.43767 l -1.51997,-2.9393 h -20.97432 c -18.17929,0 -20.97432,0.20432 -20.97432,1.53324 0,2.71295 -4.84891,11.20275 -7.6624,13.41584 l -2.72868,2.14639 10.94554,33.42425 10.94554,33.42426 4,0.0224 4,0.0224 13.2359,-33.24443 z m 248.02476,27.86064 c 0.66363,-2.48125 2.71993,-6.03255 4.72247,-8.15586 l 3.54701,-3.76092 -6.59373,-18.59415 c -3.62655,-10.22678 -7.31092,-20.7602 -8.18748,-23.40762 -1.10418,-3.33488 -2.44367,-5.25298 -4.36063,-6.24428 -6.19275,-3.2024 -7.58647,-9.27063 -3.29941,-14.36551 7.02803,-8.35234 19.02599,1.13133 13.43009,10.61568 l -2.15042,3.64468 8.26042,22.84024 8.26041,22.84025 3.5553,-0.64145 c 1.95542,-0.3528 3.61407,-0.69425 3.68588,-0.75879 0.0718,-0.0645 2.01787,-10.91734 4.32456,-24.11734 7.91899,-45.31612 7.57534,-42.82645 5.98012,-43.32553 -0.78939,-0.24696 -3.38582,-2.45988 -5.76985,-4.9176 l -4.33459,-4.46857 -35.66541,4.2699 c -19.61597,2.34845 -37.34574,4.30858 -39.3995,4.35585 l -3.73409,0.086 -1.53535,7 c -0.84444,3.85 -4.18824,19.11491 -7.43067,33.92203 l -5.89533,26.92203 4.47444,4.34866 c 4.54337,4.41565 7.20852,9.26554 7.58386,13.80066 l 0.20746,2.50662 h 29.57448 29.57449 l 1.17547,-4.39493 z m -102.48594,-6.49298 c 1.67683,-2.83865 6.74897,-7.64567 10.14222,-9.61209 1.58533,-0.91872 1.22338,-2.78826 -4.4529,-23 -3.39818,-12.1 -6.47324,-22.32049 -6.83347,-22.71219 -0.36023,-0.39171 -10.54947,3.58374 -22.64276,8.83433 -12.0933,5.25059 -22.66281,9.75789 -23.48781,10.01623 -1.13098,0.35415 -1.5181,2.15015 -1.57358,7.30045 l -0.0736,6.83075 19.07359,10.28421 c 10.49047,5.65632 20.87358,11.32891 23.07358,12.60576 2.2,1.27684 4.24048,2.3258 4.53439,2.331 0.29392,0.005 1.30206,-1.2901 2.24033,-2.87845 z m 151.39215,-0.0984 4.16687,-0.0136 6.66341,-19.99144 6.6634,-19.99144 -3.57352,-3.37027 c -6.02103,-5.67856 -8.02306,-13.22902 -5.45842,-20.58595 1.08945,-3.12518 0.94818,-3.42025 -4.0705,-8.50206 -5.03609,-5.09943 -5.32615,-5.24128 -9.25037,-4.52368 -4.84478,0.88593 -5.34082,1.57627 -6.75806,9.40524 -2.5496,14.08417 -10.03609,57.11321 -10.0426,57.72039 -0.004,0.36344 2.01628,1.64029 4.48928,2.83745 2.473,1.19716 5.5105,3.47729 6.75,5.06696 1.53471,1.96829 2.89165,2.74227 4.25364,2.42621 1.1,-0.25525 3.87509,-0.47025 6.16687,-0.47776 z M 600.77024,588.58094 c 4.90819,-21.23279 10.40266,-47.41043 10.02941,-47.78369 -0.30148,-0.30148 -33.68759,13.35862 -34.73039,14.21012 -0.35914,0.29325 4.8089,19.1345 11.54053,42.07357 l 1.54065,5.25 h 4.22067 4.22067 z m -277.97409,2.74268 3.29616,-3.83803 -4.04616,-8.67662 C 319.82077,574.03683 318,569.99672 318,569.83094 c 0,-0.16578 -1.83574,-4.238 -4.07943,-9.04938 -2.24368,-4.81139 -6.6936,-14.64357 -9.88871,-21.8493 -11.64412,-26.26026 -11.92753,-26.74513 -15.43306,-26.4034 -3.00498,0.29293 -3.11803,0.48373 -3.73403,6.30208 -0.34938,3.3 -0.95318,15.28071 -1.34178,26.62379 l -0.70656,20.62379 3.77725,1.87621 c 5.00792,2.4875 7.69814,6.37699 8.36189,12.08953 l 0.54443,4.6857 11.5,5.28936 c 6.325,2.90915 11.725,5.25628 12,5.21584 0.275,-0.0404 1.98327,-1.80062 3.79615,-3.91154 z m 23.87843,-18.74268 c 3.75398,-7.0125 6.96888,-13.30193 7.14422,-13.97652 0.17534,-0.67458 -0.82833,-2.73048 -2.23038,-4.56867 -4.09127,-5.36393 -5.82431,-11.39081 -5.12683,-17.82921 l 0.6093,-5.6244 -7.78544,-4.75253 c -4.282,-2.61389 -14.24935,-8.77556 -22.14968,-13.6926 l -14.36422,-8.94008 -2.38578,2.24132 C 299.0736,506.67098 298,508.20175 298,508.83997 c 0,0.63822 1.48725,4.27227 3.30501,8.07568 1.81776,3.80341 9.57866,20.75279 17.24646,37.66529 l 13.94146,30.75 h 3.67812 3.67811 z m 197.22127,-8.75 c 12.18816,-5.225 22.48516,-9.50689 22.88222,-9.51531 3.28243,-0.0696 3.01372,-2.11172 -3.12689,-23.76378 l -6.2945,-22.19463 -2.20228,2.97875 c -4.28538,5.79629 -11.04917,7.87159 -19.0727,5.85197 -0.9862,-0.24823 -4.89437,6.95261 -12.82779,23.63537 l -11.40949,23.99237 2.32779,1.48974 c 1.28029,0.81935 3.45279,2.71775 4.82779,4.21867 1.375,1.50092 2.553,2.74648 2.61778,2.7679 0.0648,0.0214 10.08992,-4.23605 22.27807,-9.46105 z m -42.96291,-0.26758 4.84863,-0.46589 3.03864,-6.63327 c 1.67125,-3.64829 6.92693,-14.7121 11.67927,-24.58624 l 8.64063,-17.95299 -1.94118,-3.54701 c -2.7937,-5.10475 -3.39699,-8.59776 -2.23213,-12.92374 l 1.02372,-3.80179 -13.5323,-13.41074 C 498.93378,466.83874 498.92277,466.83065 493.5234,466.32393 l -5.40251,-0.50701 -2.49685,5.50701 c -1.37327,3.02886 -7.28853,16.08201 -13.14503,29.00701 l -10.64816,23.5 2.08457,3.69812 c 2.37395,4.21146 2.87362,13.59729 0.83458,15.67652 -1.00604,1.02586 1.2846,3.67438 11.73667,13.57037 l 12.98666,12.29574 3.30549,-2.52122 c 2.10945,-1.60895 5.05989,-2.68979 8.15412,-2.98711 z m 111.16227,-28.97171 c 0.60276,-0.63984 6.55635,-27.25216 9.71746,-43.43669 0.87997,-4.50532 0.81989,-4.69943 -1.64606,-5.31834 -1.40765,-0.3533 -4.00814,-2.17851 -5.77887,-4.05603 l -3.21951,-3.41368 -25.48924,11.56695 -25.48924,11.56696 1.90478,6.66506 c 1.04763,3.66578 4.23848,14.80144 7.09077,24.74589 l 5.18599,18.08084 18.50365,-7.82013 c 10.177,-4.30107 18.82613,-8.16244 19.22027,-8.58083 z m -175.56933,-4.51071 c 1.08577,-2.3375 3.41929,-5.15 5.1856,-6.25 3.89229,-2.42398 3.90434,-2.62282 1.84804,-30.5 -0.79111,-10.725 -1.75675,-25.78919 -2.14587,-33.47598 -0.86237,-17.03553 -1.25807,-18.7048 -4.64898,-19.61167 -2.54041,-0.67941 -3.38648,0.52583 -27.2578,38.82901 l -24.63601,39.53018 2.95262,3.11423 c 3.25887,3.43725 6.17652,8.6639 6.17652,11.06457 0,1.34859 2.63076,1.54966 20.27588,1.54966 h 20.27588 z M 644,529.8276 c 14.025,-1.9169 31.18924,-4.23603 38.14275,-5.15362 l 12.64274,-1.66835 0.65719,-4.95409 c 0.36145,-2.72474 0.52221,-5.05711 0.35725,-5.18304 C 695.63497,512.74257 684.025,506.33539 670,498.63032 c -14.025,-7.70507 -27.05997,-14.96138 -28.9666,-16.12513 -3.37328,-2.05895 -3.52134,-2.06634 -5.5,-0.27449 -1.11837,1.01278 -3.3701,2.46216 -5.00384,3.22083 -2.90325,1.3482 -3.07792,1.86582 -7.72116,22.87941 -4.2881,19.40644 -5.3117,25.01819 -4.5584,24.99097 0.1375,-0.005 11.725,-1.57741 25.75,-3.49431 z m -290.51519,-8.29624 c 1.29564,-1.53977 3.96658,-3.66711 5.93544,-4.72741 1.96886,-1.0603 3.57975,-2.39726 3.57975,-2.97102 0,-1.96664 -6.03199,-71.99465 -7.06339,-82.00199 -0.56686,-5.5 -1.29587,-13.15 -1.62004,-17 -0.70556,-8.37977 -1.64488,-10.5 -4.65175,-10.5 -1.24565,0 -2.74664,-0.48182 -3.33553,-1.07071 -0.76096,-0.76096 -1.93679,0.32393 -4.06435,3.75 -1.6465,2.65139 -6.71267,10.67071 -11.25816,17.82071 -16.79685,26.42125 -30.95433,49.19974 -31.55995,50.77798 -0.37679,0.98189 0.48338,3.07503 2.17521,5.29313 2.19339,2.87569 2.88322,5.00001 3.19045,9.82505 l 0.39199,6.15606 14.53928,8.97389 c 7.99661,4.93564 17.7381,11.07676 21.64776,13.64693 3.90966,2.57017 7.70003,4.70767 8.42304,4.75 0.72301,0.0423 2.37462,-1.18285 3.67025,-2.72262 z m 116.89751,-29.23129 12.92636,-28.37888 -2.15434,-3.74324 C 479.96945,458.11916 479,454.92589 479,453.08179 c 0,-3.12678 -0.50623,-3.64095 -7.5057,-7.62335 -4.12813,-2.34873 -9.79005,-5.80768 -12.58204,-7.68655 l -5.07634,-3.41612 -3.68396,3.09286 -3.68395,3.09287 0.75039,10.14472 c 0.41271,5.5796 1.65741,22.35773 2.766,37.28474 1.10858,14.92701 2.0156,28.28151 2.0156,29.67667 0,2.38154 1.9194,3.76819 4.47798,3.23509 0.53789,-0.11207 6.79484,-12.97426 13.90434,-28.58265 z m -78.29516,1.97236 c 7.00486,-11.24282 17.99576,-28.88749 24.42422,-39.21038 8.48839,-13.63077 11.47984,-19.2428 10.92736,-20.5 -0.4184,-0.95211 -1.02578,-3.89762 -1.34973,-6.54558 L 425.5,423.20201 419,420.3886 c -3.575,-1.54737 -14.825,-6.52205 -25,-11.05484 -10.175,-4.53279 -20.59702,-9.07054 -23.16005,-10.08388 l -4.66006,-1.84243 -1.5633,2.3859 c -0.85982,1.31225 -2.47565,2.67547 -3.59073,3.02938 -1.78811,0.56753 -1.96664,1.25523 -1.51239,5.82585 1.75171,17.62594 4.6732,50.92998 6.50741,74.18236 1.1714,14.85 2.32302,27.98673 2.55915,29.19273 0.34591,1.76667 1.25423,2.26528 4.67465,2.56609 2.33493,0.20534 4.66181,0.31728 5.17084,0.24876 0.50904,-0.0685 6.65678,-9.32327 13.66164,-20.56609 z M 700.25,506.45594 c -0.1375,-0.61875 0.0875,-1.04647 0.5,-0.95049 1.69313,0.39396 6.24597,-2.60893 6.19352,-4.08503 -0.0311,-0.87421 -6.03285,-19.13948 -13.3373,-40.58948 l -13.28082,-39 -3.4127,-0.10557 c -1.87699,-0.0581 -4.7627,-0.40773 -6.4127,-0.77703 -2.92946,-0.65568 -3.36246,-0.19783 -18.4148,19.47181 l -15.41481,20.14327 1.63556,3.13376 c 0.89956,1.72357 1.76122,5.11117 1.91481,7.528 l 0.27924,4.39424 29,16.28879 c 15.95,8.95884 29.45,16.15018 30,15.98076 0.55,-0.16942 0.8875,-0.81428 0.75,-1.43303 z M 587.99765,482.56462 c 21.1043,-9.73211 21.50895,-9.9759 22.11499,-13.32359 0.33953,-1.87555 0.90801,-4.08509 1.26328,-4.91009 0.81892,-1.90165 -33.76857,-36.79172 -34.807,-35.11151 -0.37783,0.61133 -2.3479,1.12634 -4.37794,1.14447 l -3.69098,0.0329 -9.10739,27.71705 -9.10739,27.71704 3.21086,3.00066 c 1.76598,1.65036 3.52403,3.98734 3.90678,5.19329 l 0.69592,2.19263 4.20061,-1.8697 c 2.31034,-1.02833 13.87455,-6.33077 25.69826,-11.7832 z m -48.29462,2.02083 4.83133,-0.46423 9.23658,-27.4683 9.23658,-27.4683 -2.99079,-2.9908 -2.99079,-2.99079 -25.46267,12.81396 -25.46266,12.81395 -0.054,3.5 c -0.0297,1.925 -1.00973,5.06771 -2.17779,6.9838 l -2.12375,3.4838 13.84488,13.13541 13.84487,13.13542 2.71846,-2.00985 c 1.49515,-1.10541 4.89255,-2.21874 7.54979,-2.47407 z m 83.9404,-27.9683 c 2.27889,-0.25885 5.02387,5.5e-4 6.09996,0.57646 1.75234,0.93782 3.58779,-1.07798 17.5865,-19.31456 l 15.62997,-20.36166 -1.32441,-3.84322 c -1.70016,-4.93358 -0.77317,-4.86471 -39.07226,-2.90307 -16.74992,0.85791 -31.60388,1.55984 -33.0088,1.55984 -1.97582,0 -2.55936,0.50962 -2.57635,2.25 -0.0121,1.2375 -0.93013,4.25196 -2.04011,6.6988 l -2.01815,4.44879 16.29011,16.33859 c 13.22209,13.26144 16.66678,16.21448 18.29011,15.67964 1.1,-0.36243 3.86454,-0.87075 6.14343,-1.12961 z m -94.29696,-24.44179 c 13.83444,-7.23556 25.22161,-13.19806 25.30483,-13.25 0.0832,-0.0519 0.30821,-3.01942 0.5,-6.59442 l 0.3487,-6.5 -11.5,-8.71135 c -6.325,-4.79125 -11.91457,-8.72875 -12.42126,-8.75 -0.50669,-0.0213 -1.73638,0.69903 -2.73265,1.60064 -0.99626,0.9016 -4.13003,2.16148 -6.96392,2.79973 l -5.15253,1.16045 -4.38067,11.45027 c -2.40936,6.29764 -6.47466,16.74022 -9.03399,23.20573 l -4.65333,11.75547 2.34349,2.49453 c 1.28892,1.37199 2.53346,2.49453 2.76565,2.49453 0.23218,0 11.74124,-5.92001 25.57568,-13.15558 z m -45.68267,10.0017 c 1.26099,-1.18464 3.91174,-2.42214 5.89057,-2.75 4.05565,-0.67197 3.11753,1.2461 15.60872,-31.91343 l 6.14673,-16.31731 -2.08103,-2.08104 -2.08104,-2.08104 -25.56836,16.89835 -25.56836,16.89835 -0.006,4.01285 -0.006,4.01286 12.25,7.66382 c 6.7375,4.21511 12.446,7.69682 12.68555,7.73715 0.23955,0.0403 1.46726,-0.89593 2.72825,-2.08056 z" fill="#000000"/></g><text x="0" y="558.84143" fill="#000000" font-size="5px" font-weight="bold" font-family="'Helvetica Neue', Helvetica, Arial-Unicode, Arial, Sans-serif">Created by Lucas Rathgeb</text><text x="0" y="563.84143" fill="#000000" font-size="5px" font-weight="bold" font-family="'Helvetica Neue', Helvetica, Arial-Unicode, Arial, Sans-serif">from the Noun Project</text></svg>