<svg xmlns="http://www.w3.org/2000/svg" version="1.1" viewBox="-5.0 -10.0 110.0 135.0">
 <path d="m60.598 11.805c-1.4922 0-2.7031 1.2109-2.707 2.707 0.003906 0.21094 0.03125 0.41797 0.082031 0.62109l-29.07 9.9062c-0.46875-0.875-1.3828-1.4219-2.375-1.4258-0.71875 0-1.4062 0.28516-1.9141 0.79297-0.50781 0.50781-0.79297 1.1953-0.79297 1.9141 0 0.91406 0.46484 1.7656 1.2305 2.2617l-12.039 20.203c-0.36328-0.17578-0.76172-0.26562-1.1641-0.26562-0.71484 0-1.4023 0.28516-1.9102 0.79297s-0.79297 1.1992-0.79297 1.9141c0 1.4961 1.2109 2.707 2.7031 2.707 0.25 0 0.49609-0.035156 0.73438-0.10547l11.27 29.238c-0.92187 0.45703-1.5039 1.3945-1.5078 2.4219 0 0.71875 0.28516 1.4062 0.79297 1.9141 0.50781 0.50781 1.1953 0.79297 1.9141 0.79297 1.4023 0 2.5742-1.0742 2.6953-2.4727l57.719-0.34766-0.003906 0.003906c0.13672 1.3828 1.3008 2.4375 2.6914 2.4414 1.4922 0 2.7031-1.2109 2.7031-2.707 0-0.71484-0.28516-1.4062-0.79297-1.9141-0.50781-0.50781-1.1953-0.79297-1.9102-0.79297-0.027344 0.003906-0.054688 0.003906-0.082032 0.007812l-3.7109-30.086c1.2422-0.26953 2.1289-1.3672 2.1289-2.6406 0-1.4492-1.1406-2.6406-2.5859-2.7031l-1.3984-29.797c1.332-0.1875 2.3242-1.3281 2.3281-2.6758-0.003906-0.71875-0.28906-1.4062-0.79688-1.9141-0.50781-0.50781-1.1953-0.79297-1.9141-0.79297-0.125 0-0.25391 0.011718-0.38281 0.027343-1.2344 0.18359-2.1875 1.1836-2.3008 2.4297h-16.152c-0.12891-1.3906-1.293-2.4531-2.6875-2.457zm2.6875 2.9492 16.148 0.007813h0.003906c0.046875 0.53906 0.25781 1.0508 0.60156 1.4688l-18.203 18.113c-0.66406-0.59766-1.4961-0.98047-2.3828-1.0977l1.1992-16.035c1.375-0.027344 2.5078-1.0859 2.6328-2.457zm-5.1562 0.85938v0.003907c0.37109 0.82422 1.1289 1.4102 2.0234 1.5586l-1.1953 16.031h-0.082031c-1.7891 0.003907-3.3984 1.082-4.082 2.7383l-25.648-8.9727c0.058594-0.21094 0.085938-0.43359 0.085938-0.65234 0-0.28125-0.042969-0.55469-0.12891-0.82031zm22.262 0.97266c0.45703 0.37891 1.0195 0.59766 1.6133 0.62109l1.4062 29.805h-0.003906c-0.80469 0.11328-1.5156 0.58594-1.9336 1.2812l-18.508-8.957c0.22266-0.53906 0.33984-1.1172 0.33984-1.6992 0-1.0859-0.39844-2.1289-1.1211-2.9414zm-51.406 10.859 25.637 8.9688c-0.11328 0.39844-0.17188 0.80859-0.17188 1.2227 0 0.86719 0.25781 1.7188 0.74219 2.4414l-22.727 17.023c-0.5-0.55469-1.2109-0.875-1.957-0.89062l-3.4023-27.258c0.82812-0.17969 1.5234-0.73828 1.8789-1.5078zm-3.4961 1.3672h0.003907c0.32812 0.13672 0.67969 0.21094 1.0352 0.21094 0.027344 0 0.050781-0.003907 0.078125-0.003907l3.3945 27.23c-0.82422 0.14453-1.5391 0.66406-1.9297 1.4102l-13.633-5.6406c0.078125-0.25781 0.11719-0.52344 0.11719-0.79297 0-0.86328-0.41406-1.6719-1.1172-2.1797zm37.254 10.969 18.508 8.9609h0.007812c-0.11719 0.30469-0.17578 0.625-0.17969 0.94531 0 0.71875 0.28516 1.4062 0.79297 1.9141 0.50781 0.50781 1.1953 0.79297 1.9102 0.79297 0.027344 0 0.054688-0.003906 0.082031-0.003906l3.707 30.086c-0.21484 0.046876-0.42187 0.12109-0.62109 0.21484l-25.543-41.422c0.55469-0.38672 1.0117-0.89453 1.3398-1.4844zm-7.2539 0.69922 0.003907 0.003906c0.58984 0.69531 1.3789 1.1953 2.2578 1.4258l-6.125 30.227v0.003906c-0.24219-0.042969-0.49219-0.066406-0.73828-0.066406-1.2461 0.003906-2.4297 0.53125-3.2656 1.4492l-14.961-13.031c0.32812-0.46094 0.50781-1.0117 0.50781-1.5781 0-0.49609-0.14062-0.98828-0.40234-1.4102zm5.4922 1.043 25.539 41.434h0.007813c-0.023438 0.015625-0.042969 0.03125-0.0625 0.046875l-17.059-17.766c0.42969-0.49219 0.66406-1.1211 0.66016-1.7734 0.003906-0.71484-0.28125-1.4062-0.78906-1.9141-0.50781-0.50781-1.1953-0.79297-1.9141-0.79297-0.20312 0.003907-0.40625 0.027344-0.60547 0.074219l-6.2656-19.078c0.17187-0.066406 0.33594-0.14062 0.49219-0.22656zm-0.96875 0.38672 6.2695 19.07 0.003906 0.003906c-0.98828 0.42969-1.6289 1.4023-1.6289 2.4805 0.003906 0.55078 0.17188 1.0859 0.48438 1.5352l-10.91 8.6016c-0.5625-0.64453-1.2969-1.1172-2.1172-1.3516l6.1328-30.23c0.20703 0.027344 0.41797 0.042969 0.63281 0.042969 0.38281 0 0.76562-0.050781 1.1406-0.14844zm-45.773 10.574 13.637 5.6289 0.003906 0.003907c-0.082031 0.25781-0.12109 0.52734-0.125 0.79687 0.003906 1.1914 0.78516 2.2461 1.9258 2.5898l-4.3359 21.301h-0.003906c-0.09375-0.011719-0.19141-0.019532-0.28906-0.023438-0.25 0-0.49609 0.035156-0.73438 0.10547l-11.266-29.238c0.51172-0.25 0.92969-0.66016 1.1914-1.1602zm18.082 8.3867 14.98 13.039 0.007813 0.003906c-0.55078 0.75391-0.84766 1.6602-0.85156 2.5898 0.003907 0.44922 0.070313 0.89062 0.20703 1.3164l-19.148 6.5586c-0.32031-0.71484-0.93359-1.2539-1.6836-1.4805l4.3438-21.301h-0.003906c0.097656 0.011719 0.19531 0.019532 0.28906 0.023438 0.69531 0 1.3633-0.26953 1.8672-0.74609zm33.141 4.5117 0.003906 0.003907c0.50781 0.5 1.1875 0.78125 1.8984 0.78516 0.61328 0 1.207-0.21094 1.6875-0.58984l17.055 17.762c-0.27344 0.31641-0.46875 0.6875-0.57031 1.0938l-17.234-3.9531-13.094-3.0117c0.070313-0.31641 0.10547-0.64062 0.10547-0.96875 0-0.89453-0.26953-1.7656-0.77734-2.5039zm-10.402 12.574 13.121 3.0117 17.062 3.9141-57.516 0.33594 0.007813 0.003906c-0.011719-0.125-0.03125-0.25-0.0625-0.37109l19.164-6.5625c0.70703 1.6055 2.2969 2.6406 4.0508 2.6445 1.8828 0 3.5625-1.1953 4.1797-2.9766z"/>
<text x="0.0" y="117.5" font-size="5.0" font-weight="bold" font-family="Arbeit Regular, Helvetica, Arial-Unicode, Arial, Sans-serif" fill="#000000">Created by SA Creations</text><text x="0.0" y="122.5" font-size="5.0" font-weight="bold" font-family="Arbeit Regular, Helvetica, Arial-Unicode, Arial, Sans-serif" fill="#000000">from Noun Project</text></svg>