<svg xmlns="http://www.w3.org/2000/svg" xmlns:xlink="http://www.w3.org/1999/xlink" version="1.1" x="0px" y="0px" viewBox="0 0 100 125" enable-background="new 0 0 100 100" xml:space="preserve"><g><path d="M27.728,70.766c-0.249,0-0.501-0.062-0.733-0.192c-0.723-0.406-0.979-1.32-0.573-2.042   c19.653-35.015,47.649-45.827,48.832-46.27c0.773-0.29,1.639,0.103,1.93,0.877c0.292,0.775-0.101,1.64-0.876,1.932   C76.027,25.175,48.125,35.992,29.036,70C28.762,70.49,28.252,70.766,27.728,70.766z"/></g><g><path d="M23.293,77.833c-0.261,0-0.522-0.068-0.755-0.204c-0.462-0.269-0.745-0.762-0.745-1.296V59.25c0-0.829,0.672-1.5,1.5-1.5   s1.5,0.671,1.5,1.5v14.51l10.679-6.048c0.719-0.408,1.637-0.155,2.044,0.566c0.409,0.721,0.155,1.636-0.565,2.044l-12.918,7.317   C23.803,77.769,23.548,77.833,23.293,77.833z"/></g><text x="0" y="115" fill="#000000" font-size="5px" font-weight="bold" font-family="'Helvetica Neue', Helvetica, Arial-Unicode, Arial, Sans-serif">Created by 4B Icons</text><text x="0" y="120" fill="#000000" font-size="5px" font-weight="bold" font-family="'Helvetica Neue', Helvetica, Arial-Unicode, Arial, Sans-serif">from the Noun Project</text></svg>